<svg width="31" height="29" viewBox="0 0 31 29" fill="none" xmlns="http://www.w3.org/2000/svg">
<g clip-path="url(#clip0_177_453)">
<path d="M26.4135 24.7098H21.8202V17.9805C21.8202 16.3759 21.7896 14.3102 19.4313 14.3102C17.039 14.3102 16.6729 16.0586 16.6729 17.8637V24.7093H12.0798V10.8713H16.4892V12.7625H16.551C16.9923 12.0566 17.6299 11.4759 18.3961 11.0823C19.1622 10.6886 20.0281 10.4968 20.9016 10.5271C25.5571 10.5271 26.4154 13.3917 26.4154 17.1185L26.4135 24.7098ZM6.89702 8.97988C5.42488 8.9801 4.23126 7.86383 4.23102 6.48667C4.23077 5.10951 5.42391 3.9929 6.89605 3.99267C8.36818 3.99233 9.5618 5.1086 9.56205 6.48576C9.56217 7.1471 9.28147 7.78141 8.78168 8.24914C8.2819 8.71687 7.60397 8.97973 6.89702 8.97988ZM9.19368 24.7099H4.59563V10.8713H9.19356V24.7098L9.19368 24.7099ZM28.7033 0.00211064H2.28758C1.03911 -0.01103 0.0152578 0.92456 0 2.09249V26.9071C0.0147734 28.0756 1.0385 29.0121 2.28746 28.9998H28.7033C29.955 29.0143 30.9827 28.0779 31 26.9071V2.09056C30.9822 0.920368 29.9544 -0.0151081 28.7033 0.000184863" fill="#5391AC"/>
</g>
<defs>
<clipPath id="clip0_177_453">
<rect width="31" height="29" fill="white"/>
</clipPath>
</defs>
</svg>
