<svg width="41" height="37" viewBox="0 0 41 37" fill="none" xmlns="http://www.w3.org/2000/svg">
<path opacity="0.2" d="M14.8145 18.0373C16.1329 20.4944 18.3345 22.4761 21.0605 23.6596C21.2616 23.7455 21.484 23.7827 21.7059 23.7675C21.9277 23.7523 22.1414 23.6852 22.3258 23.5729L26.3297 21.1592C26.5066 21.0509 26.711 20.9849 26.9238 20.9672C27.1367 20.9495 27.351 20.9807 27.5469 21.058L35.0422 23.9631C35.2984 24.0593 35.5124 24.2289 35.6513 24.4456C35.7902 24.6624 35.8463 24.9144 35.8109 25.1627C35.5734 26.836 34.6683 28.3739 33.2652 29.4885C31.862 30.6031 30.0568 31.2182 28.1875 31.2186C22.4108 31.2186 16.8706 29.1477 12.7858 25.4614C8.70105 21.7751 6.40625 16.7755 6.40625 11.5623C6.40667 9.87536 7.08822 8.24633 8.32336 6.98005C9.5585 5.71378 11.2626 4.89703 13.1168 4.68265C13.392 4.65074 13.6712 4.70137 13.9114 4.82673C14.1516 4.95208 14.3395 5.14522 14.4461 5.3764L17.6652 12.1549C17.7489 12.3289 17.784 12.5187 17.7672 12.7077C17.7505 12.8968 17.6824 13.0792 17.5691 13.2389L14.8945 16.91C14.7755 17.076 14.7056 17.2669 14.6915 17.4642C14.6775 17.6616 14.7198 17.8589 14.8145 18.0373Z" fill="#5391AC"/>
<path d="M28.1875 32.375C15.4711 32.375 5.125 23.0383 5.125 11.5625C5.12981 9.59406 5.92654 7.69418 7.36706 6.21608C8.80759 4.73798 10.7939 3.78224 12.9566 3.52656C13.508 3.47139 14.0644 3.57615 14.5454 3.82563C15.0263 4.07511 15.4066 4.45635 15.6312 4.91406L18.8504 11.6926C19.0174 12.0444 19.0843 12.4283 19.0452 12.8095C19.006 13.1906 18.862 13.5568 18.6262 13.875L15.9676 17.5461C17.1714 19.7509 19.1551 21.5308 21.6051 22.6047L25.625 20.191C25.9772 19.9768 26.384 19.8471 26.8072 19.8142C27.2303 19.7813 27.6558 19.8464 28.0434 20.0031L35.5547 22.8937C36.0619 23.0965 36.4843 23.4397 36.7608 23.8737C37.0372 24.3077 37.1533 24.8099 37.0922 25.3074C36.8089 27.2592 35.7498 29.0517 34.1119 30.3517C32.474 31.6517 30.3687 32.3707 28.1875 32.375ZM13.277 5.82461C11.7314 6.00391 10.3112 6.68545 9.28233 7.74164C8.25347 8.79782 7.68647 10.1562 7.6875 11.5625C7.69174 16.4678 9.85292 21.1712 13.6965 24.6397C17.5401 28.1083 22.7519 30.0587 28.1875 30.0625C29.7458 30.0634 31.2511 29.5517 32.4214 28.6233C33.5918 27.6948 34.347 26.4132 34.5457 25.0184L27.0344 22.1277L23.0305 24.5414C22.6621 24.7612 22.237 24.8913 21.7964 24.9192C21.3558 24.947 20.9148 24.8717 20.516 24.7004C17.5322 23.3978 15.1186 21.2299 13.6613 18.5434C13.4692 18.1847 13.383 17.7874 13.411 17.3898C13.4391 16.9922 13.5805 16.608 13.8215 16.2742L16.4961 12.6031L13.277 5.82461Z" fill="#5391AC"/>
</svg>
