<svg width="36" height="30" viewBox="0 0 36 30" fill="none" xmlns="http://www.w3.org/2000/svg">
<path d="M35.7642 7.04301C35.7642 3.70316 33.4368 1.01645 30.5611 1.01645C26.6657 0.824218 22.6931 0.75 18.6332 0.75H17.3676C13.3176 0.75 9.33793 0.824219 5.44262 1.01719C2.57387 1.01719 0.246521 3.71875 0.246521 7.05859C0.0707401 9.70004 -0.00379117 12.3422 0.000427576 14.9844C-0.00660367 17.6266 0.0730838 20.2713 0.23949 22.9184C0.23949 26.2582 2.56683 28.9672 5.43558 28.9672C9.52777 29.1676 13.7254 29.2567 17.9934 29.2493C22.2684 29.2641 26.4543 29.1701 30.5512 28.9672C33.427 28.9672 35.7543 26.2582 35.7543 22.9184C35.9231 20.2688 36.0004 17.6266 35.9934 14.977C36.0093 12.3348 35.9329 9.69014 35.7642 7.04301ZM14.5551 22.2653V7.68129L24.7504 14.9696L14.5551 22.2653Z" fill="#5391AC"/>
</svg>
