<svg width="34" height="32" viewBox="0 0 34 32" fill="none" xmlns="http://www.w3.org/2000/svg">
<path d="M34 16C34 7.1635 26.3888 0 17 0C7.61122 0 0 7.16337 0 16C0 23.986 6.21669 30.6054 14.3438 31.8056V20.625H10.0273V16H14.3438V12.475C14.3438 8.465 16.8818 6.25 20.7648 6.25C22.6249 6.25 24.5703 6.5625 24.5703 6.5625V10.5H22.4267C20.3147 10.5 19.6562 11.7334 19.6562 12.9987V16H24.3711L23.6174 20.625H19.6562V31.8056C27.7833 30.6054 34 23.9861 34 16Z" fill="#5391AC"/>
<path d="M23.6174 20.625L24.3711 16H19.6562V12.9987C19.6562 11.7332 20.3149 10.5 22.4267 10.5H24.5703V6.5625C24.5703 6.5625 22.6249 6.25 20.7648 6.25C16.8818 6.25 14.3438 8.465 14.3438 12.475V16H10.0273V20.625H14.3438V31.8056C15.2225 31.9352 16.1106 32.0002 17 32C17.8894 32.0002 18.7775 31.9353 19.6562 31.8056V20.625H23.6174Z" fill="white"/>
</svg>
