<svg width="42" height="37" viewBox="0 0 42 37" fill="none" xmlns="http://www.w3.org/2000/svg">
<path opacity="0.2" d="M28.2188 5.20312H13.7812C11.6927 5.20313 9.68963 5.93404 8.21278 7.23507C6.73594 8.53611 5.90625 10.3007 5.90625 12.1406V24.8594C5.90625 26.6993 6.73594 28.4639 8.21278 29.7649C9.68963 31.066 11.6927 31.7969 13.7812 31.7969H28.2188C30.3073 31.7969 32.3104 31.066 33.7872 29.7649C35.2641 28.4639 36.0938 26.6993 36.0938 24.8594V12.1406C36.0938 10.3007 35.2641 8.53611 33.7872 7.23507C32.3104 5.93404 30.3073 5.20313 28.2188 5.20312ZM21 24.2812C19.7021 24.2812 18.4333 23.9422 17.3541 23.3069C16.2749 22.6717 15.4337 21.7688 14.937 20.7124C14.4403 19.656 14.3104 18.4936 14.5636 17.3721C14.8168 16.2507 15.4418 15.2206 16.3596 14.412C17.2774 13.6035 18.4467 13.0529 19.7197 12.8298C20.9927 12.6068 22.3122 12.7213 23.5114 13.1588C24.7105 13.5964 25.7354 14.3374 26.4565 15.2881C27.1776 16.2388 27.5625 17.3566 27.5625 18.5C27.5625 20.0333 26.8711 21.5038 25.6404 22.588C24.4097 23.6722 22.7405 24.2812 21 24.2812Z" fill="#5391AC"/>
<path d="M21 11.5625C19.4425 11.5625 17.9199 11.9694 16.6249 12.7317C15.3298 13.494 14.3205 14.5775 13.7245 15.8451C13.1284 17.1128 12.9725 18.5077 13.2763 19.8534C13.5802 21.1992 14.3302 22.4353 15.4315 23.4056C16.5329 24.3758 17.9361 25.0365 19.4637 25.3042C20.9913 25.5719 22.5747 25.4345 24.0136 24.9094C25.4526 24.3843 26.6825 23.4951 27.5478 22.3543C28.4131 21.2134 28.875 19.8721 28.875 18.5C28.875 16.6601 28.0453 14.8955 26.5685 13.5944C25.0916 12.2934 23.0886 11.5625 21 11.5625ZM21 23.125C19.9617 23.125 18.9466 22.8537 18.0833 22.3455C17.2199 21.8373 16.547 21.115 16.1496 20.2699C15.7523 19.4248 15.6483 18.4949 15.8509 17.5977C16.0535 16.7005 16.5535 15.8764 17.2877 15.2296C18.0219 14.5828 18.9574 14.1423 19.9758 13.9639C20.9942 13.7854 22.0498 13.877 23.0091 14.2271C23.9684 14.5771 24.7883 15.1699 25.3652 15.9305C25.9421 16.6911 26.25 17.5853 26.25 18.5C26.2457 19.7255 25.6912 20.8996 24.7075 21.7662C23.7239 22.6327 22.3911 23.1212 21 23.125Z" fill="#5391AC"/>
<path d="M28.2188 4.04688H13.7812C11.3446 4.04688 9.0077 4.89961 7.28471 6.41748C5.56172 7.93535 4.59375 9.99403 4.59375 12.1406V24.8594C4.59375 27.006 5.56172 29.0646 7.28471 30.5825C9.0077 32.1004 11.3446 32.9531 13.7812 32.9531H28.2188C30.6554 32.9531 32.9923 32.1004 34.7153 30.5825C36.4383 29.0646 37.4062 27.006 37.4062 24.8594V12.1406C37.4062 9.99403 36.4383 7.93535 34.7153 6.41748C32.9923 4.89961 30.6554 4.04688 28.2188 4.04688ZM34.7812 24.8594C34.7812 25.6186 34.6115 26.3703 34.2817 27.0718C33.9519 27.7732 33.4685 28.4105 32.8591 28.9473C32.2498 29.4842 31.5263 29.91 30.7301 30.2006C29.9339 30.4911 29.0805 30.6406 28.2188 30.6406H13.7812C12.9194 30.6406 12.0661 30.4911 11.2699 30.2006C10.4737 29.91 9.75025 29.4842 9.14086 28.9473C8.53148 28.4105 8.04809 27.7732 7.71829 27.0718C7.38849 26.3703 7.21875 25.6186 7.21875 24.8594V12.1406C7.21875 10.6073 7.91015 9.13686 9.14086 8.05266C10.3716 6.96847 12.0408 6.35938 13.7812 6.35938H28.2188C29.0805 6.35938 29.9339 6.50891 30.7301 6.79945C31.5263 7.08998 32.2498 7.51583 32.8591 8.05266C33.4685 8.5895 33.9519 9.22682 34.2817 9.92824C34.6115 10.6297 34.7812 11.3814 34.7812 12.1406V24.8594Z" fill="#5391AC"/>
<path d="M29.5312 12.7188C30.6186 12.7188 31.5 11.9422 31.5 10.9844C31.5 10.0265 30.6186 9.25 29.5312 9.25C28.4439 9.25 27.5625 10.0265 27.5625 10.9844C27.5625 11.9422 28.4439 12.7188 29.5312 12.7188Z" fill="#5391AC"/>
</svg>
